<svg width="616" height="442" viewBox="0 0 616 442" fill="none" xmlns="http://www.w3.org/2000/svg">
<path d="M570.267 435.155C574.536 419.16 588.493 365.491 597.949 311.11C609.254 246.202 619.147 156.778 573.924 119.293C528.701 81.8074 469.345 126.49 438.255 112.022C407.164 97.5547 405.765 25.4777 322.385 3.8415C239.005 -17.7947 192.383 57.2195 155.64 97.6565C118.896 138.093 77.9123 110.627 24.2536 153.899C-28.866 196.706 16.1823 390.457 55.4611 435.155H570.267Z" fill="#CCCCCC"/>
<path opacity="0.7" d="M570.267 435.155C574.536 419.16 588.493 365.491 597.949 311.11C609.254 246.202 619.147 156.778 573.924 119.293C528.701 81.8074 469.345 126.49 438.255 112.022C407.164 97.5547 405.765 25.4777 322.385 3.8415C239.005 -17.7947 192.383 57.2195 155.64 97.6565C118.896 138.093 77.9123 110.627 24.2536 153.899C-28.866 196.706 16.1823 390.457 55.4611 435.155H570.267Z" fill="white"/>
<path d="M62.8622 434.224C62.8622 434.224 52.6637 296.09 44.6506 261.92C36.6375 227.75 75.9746 220.48 132.795 216.117C189.615 211.755 215.84 215.39 228.224 223.388C240.608 231.385 246.1 325.796 254.448 359.341C262.797 392.886 269.018 436.405 269.018 436.405L62.8622 434.224Z" fill="#263238" stroke="#263238" stroke-linecap="round" stroke-linejoin="round"/>
<path d="M565.168 319.747C557.373 329.475 553.512 334.898 551.91 337.356C553.956 326.653 556.934 316.149 560.812 305.963C563.728 298.066 565.552 289.808 566.231 281.419L565.503 281.811L564.833 280.517C565.095 280.372 591.669 266.297 599.187 253.021L600.455 253.748C593.665 265.729 572.685 277.871 566.945 281.026C572.394 280.503 589.411 277.929 599.537 265.439C611.702 250.447 609.56 231.865 609.56 231.865C609.56 231.865 586.628 247.583 577.333 259.724C572.997 265.276 569.357 271.336 566.494 277.769C566.906 267.871 566.148 257.958 564.235 248.237C571.884 242.232 600.017 219.156 603.106 201.853C606.69 181.86 601.649 147.559 601.649 147.559C598.763 154.676 595.415 161.598 591.626 168.279C585.186 179.708 565.139 197.578 561.555 216.859C560.643 221.683 560.155 226.578 560.098 231.487C556.866 220.728 553.004 210.168 548.53 199.861C547.347 197.102 546.373 194.259 545.616 191.355V191.355L544.989 190.977C545.12 190.759 558.029 169.036 558.029 162.798H559.486C559.486 168.614 549.637 185.917 546.912 190.57C551.414 187.865 558.757 182.325 561.482 173.718C565.59 160.936 559.515 149.42 559.515 149.42C559.515 149.42 548.632 165.415 545.659 175.593C544.254 180.25 543.417 185.059 543.168 189.916C541.085 184.623 537.894 177.44 534.223 172.569C527.783 163.99 523.485 151.136 523.485 151.136C523.485 151.136 515.618 164.702 521.343 178.996C526.049 190.73 539.438 195.237 544.071 196.444C544.581 198 545.15 199.512 545.776 200.966C552.044 215.128 556.951 229.85 560.433 244.937C557.096 240.502 550.802 232.694 544.844 228.331C536.189 221.992 528.337 210.883 528.337 210.883C528.337 210.883 524.753 226.15 534.383 238.175C542.25 247.99 556.237 248.47 561.132 248.354C564.439 265.657 564.818 283.716 559.209 301.164C558.845 297.777 556.805 288.558 545.557 278.249C531.367 265.162 502.971 223.577 502.971 223.577C502.971 223.577 505.23 272.738 518.837 288.892C531.309 303.709 554.853 302.837 558.728 302.589C558.466 303.36 558.204 304.131 557.912 304.901C548.952 328.937 547.058 345.789 546.84 354.702H530.085V432.581H576.619V354.746H549.957C550.132 349.666 550.658 344.603 551.531 339.595L551.05 339.726L550.657 338.272C550.948 338.199 580.101 329.998 600.484 309.074L601.533 310.078C585.084 326.974 563.026 335.669 554.561 338.548C562.982 337.516 583.54 334.418 593.082 328.253C605.262 320.402 616 296.817 616 296.817C616 296.817 576.619 305.454 565.168 319.747ZM543.022 193.245C538.258 190.718 534.113 187.171 530.884 182.857C527.655 178.543 525.422 173.57 524.345 168.294L525.802 168.003C526.821 173.058 528.95 177.825 532.036 181.961C535.122 186.097 539.088 189.499 543.649 191.922L543.022 193.245ZM563.623 248.732L563.317 249.153L562.764 248.921C561.948 248.601 542.906 240.778 535.155 229.48L536.364 228.651C543.139 238.553 559.544 245.969 562.764 247.35C565.226 243.57 580.699 219.607 586.075 204.543L587.444 205.038C581.558 221.527 563.813 248.426 563.623 248.703V248.732ZM556.849 302.051C556.63 301.979 533.931 293.444 523.82 273.872L525.117 273.218C534.966 292.28 557.169 300.612 557.359 300.699L556.849 302.051Z" fill="#263238"/>
<path d="M239.136 236.358C239.136 236.358 197.599 245.155 162.982 264.624C128.366 284.094 101.311 299.798 101.311 307.315C101.311 314.833 87.4552 434.195 87.4552 434.195H402.152C402.152 434.195 371.309 368.24 366.282 339.973C361.256 311.706 355.574 293.444 339.213 275.283C322.851 257.122 275.006 233.857 239.136 236.358Z" fill="white"/>
<path d="M117.133 351.445C121.795 348.13 131.119 373.372 133.771 367.44C136.423 361.507 117.133 331.569 115.807 320.91C114.481 310.252 127.113 308.944 141.77 298.983C156.426 289.023 169.728 281.041 169.728 294.331C169.728 307.62 175.716 332.136 180.378 322.234C185.04 312.332 195.02 299.652 195.676 316.912C196.332 334.171 195.676 351.46 197.687 351.46C199.697 351.46 217.646 332.863 222.309 323.557C226.971 314.251 216.976 290.346 216.976 279.717C216.976 269.088 226.301 254.475 226.301 254.475L226.898 239.426C211.994 243.497 185.973 251.712 162.982 264.639C128.366 284.05 101.311 299.798 101.311 307.315C101.311 314.833 87.4552 434.195 87.4552 434.195H104.676C107.881 404.634 113.84 353.845 117.133 351.445Z" fill="#CCCCCC"/>
<path opacity="0.5" d="M117.133 351.445C121.795 348.13 131.119 373.372 133.771 367.44C136.423 361.507 117.133 331.569 115.807 320.91C114.481 310.252 127.113 308.944 141.77 298.983C156.426 289.023 169.728 281.041 169.728 294.331C169.728 307.62 175.716 332.136 180.378 322.234C185.04 312.332 195.02 299.652 195.676 316.912C196.332 334.171 195.676 351.46 197.687 351.46C199.697 351.46 217.646 332.863 222.309 323.557C226.971 314.251 216.976 290.346 216.976 279.717C216.976 269.088 226.301 254.475 226.301 254.475L226.898 239.426C211.994 243.497 185.973 251.712 162.982 264.639C128.366 284.05 101.311 299.798 101.311 307.315C101.311 314.833 87.4552 434.195 87.4552 434.195H104.676C107.881 404.634 113.84 353.845 117.133 351.445Z" fill="white"/>
<path d="M317.723 265.686C317.723 265.686 339.577 276.344 347.838 287.017C341.198 275.568 331.194 266.431 319.18 260.844L317.723 265.686Z" fill="#263238" stroke="#263238" stroke-linecap="round" stroke-linejoin="round"/>
<path d="M239.136 236.358C239.136 236.358 197.599 245.155 162.982 264.624C128.366 284.094 101.311 299.798 101.311 307.315C101.311 314.833 87.4552 434.195 87.4552 434.195H402.152C402.152 434.195 371.309 368.24 366.282 339.973C361.256 311.706 355.574 293.444 339.213 275.283C322.851 257.122 275.006 233.857 239.136 236.358Z" stroke="#263238" stroke-linecap="round" stroke-linejoin="round"/>
<path d="M225.31 240.764C219.677 244.253 214.964 249.039 211.567 254.722C208.17 260.404 206.188 266.817 205.787 273.421C204.534 296.032 205.787 319.282 204.534 331.83C203.281 344.379 194.467 354.455 201.387 353.816C208.308 353.176 224.042 328.064 229.71 328.064C235.377 328.064 237.257 340.002 239.777 343.768C242.298 347.534 251.141 349.119 251.141 349.119C251.141 349.119 259.285 339.377 259.285 336.236C259.285 333.095 256.765 322.408 263.656 323.673C270.548 324.938 285.67 348.799 286.312 341.253C286.953 333.706 279.377 322.35 279.377 304.203C279.377 286.057 270.635 264.624 257.989 251.436C245.343 238.248 238.189 239.789 225.31 240.764Z" fill="white"/>
<path d="M226.854 240.633L225.295 240.764C219.662 244.253 214.949 249.039 211.552 254.722C208.156 260.404 206.173 266.817 205.772 273.421C204.52 296.032 205.772 319.282 204.52 331.83C203.704 339.915 199.785 346.952 198.925 350.733C203.543 347.345 218.171 331.758 222.309 323.499C226.971 314.207 216.976 290.288 216.976 279.659C216.976 269.03 226.301 254.417 226.301 254.417L226.854 240.633Z" fill="#CCCCCC"/>
<path opacity="0.5" d="M226.854 240.633L225.295 240.764C219.662 244.253 214.949 249.039 211.552 254.722C208.156 260.404 206.173 266.817 205.772 273.421C204.52 296.032 205.772 319.282 204.52 331.83C203.704 339.915 199.785 346.952 198.925 350.733C203.543 347.345 218.171 331.758 222.309 323.499C226.971 314.207 216.976 290.288 216.976 279.659C216.976 269.03 226.301 254.417 226.301 254.417L226.854 240.633Z" fill="white"/>
<path d="M225.31 240.764C219.677 244.253 214.964 249.039 211.567 254.722C208.17 260.404 206.188 266.817 205.787 273.421C204.534 296.032 205.787 319.282 204.534 331.83C203.281 344.379 194.467 354.455 201.387 353.816C208.308 353.176 224.042 328.064 229.71 328.064C235.377 328.064 237.257 340.002 239.777 343.768C242.298 347.534 251.141 349.119 251.141 349.119C251.141 349.119 259.285 339.377 259.285 336.236C259.285 333.095 256.765 322.408 263.656 323.673C270.548 324.938 285.67 348.799 286.312 341.253C286.953 333.706 279.377 322.35 279.377 304.203C279.377 286.057 270.635 264.624 257.989 251.436C245.343 238.248 238.189 239.789 225.31 240.764Z" stroke="#263238" stroke-linecap="round" stroke-linejoin="round"/>
<path d="M230.54 240.923C225.704 252.443 223.141 264.786 222.993 277.275C222.993 297.137 233.279 317.682 237.402 327.265C241.526 336.847 251.127 349.177 251.127 349.177C251.127 349.177 250.427 323.848 256.605 311.517C262.782 299.187 268.26 290.288 268.26 290.288C268.26 290.288 260.713 282.756 249.728 265.642C238.743 248.528 230.54 240.923 230.54 240.923Z" fill="white"/>
<path d="M263.496 298.445L260.917 281.52C257.901 277.624 254.099 272.36 249.743 265.526C238.772 248.397 230.54 240.807 230.54 240.807C225.704 252.326 223.141 264.669 222.993 277.158C223.15 284.961 224.42 292.702 226.767 300.147L263.19 298.983L263.496 298.445Z" fill="#CCCCCC"/>
<path opacity="0.5" d="M263.496 298.445L260.917 281.52C257.901 277.624 254.099 272.36 249.743 265.526C238.772 248.397 230.54 240.807 230.54 240.807C225.704 252.326 223.141 264.669 222.993 277.158C223.15 284.961 224.42 292.702 226.767 300.147L263.19 298.983L263.496 298.445Z" fill="white"/>
<path d="M249.743 265.585C238.772 248.456 230.54 240.866 230.54 240.866C225.704 252.385 223.141 264.728 222.993 277.217C223.026 281.314 223.416 285.401 224.159 289.431L254.871 290.376L262.374 283.382C257.866 277.666 253.65 271.725 249.743 265.585V265.585Z" fill="#263238" stroke="#263238" stroke-linecap="round" stroke-linejoin="round"/>
<path d="M230.54 240.923C225.704 252.443 223.141 264.786 222.993 277.275C222.993 297.137 233.279 317.682 237.402 327.265C241.526 336.847 251.127 349.177 251.127 349.177C251.127 349.177 250.427 323.848 256.605 311.517C262.782 299.187 268.26 290.288 268.26 290.288C268.26 290.288 260.713 282.756 249.728 265.642C238.743 248.528 230.54 240.923 230.54 240.923Z" stroke="#263238" stroke-linecap="round" stroke-linejoin="round"/>
<path d="M184.385 284.734C184.385 284.734 198.226 251.436 220.881 243.279" stroke="#263238" stroke-linecap="round" stroke-linejoin="round"/>
<path d="M124.592 312.361C124.592 312.361 143.532 343.143 145.995 369.519" stroke="#263238" stroke-linecap="round" stroke-linejoin="round"/>
<path d="M147.874 340.627C147.874 340.627 154.168 380.206 154.168 400.243C154.068 411.628 155.123 422.993 157.315 434.166" stroke="#263238" stroke-linecap="round" stroke-linejoin="round"/>
<path d="M153.542 391.504C157.099 376.058 158.792 360.242 158.583 344.393" stroke="#263238" stroke-linecap="round" stroke-linejoin="round"/>
<path d="M325.984 341.253C325.984 341.253 327.878 363.877 332.278 391.504C336.678 419.131 339.198 432.959 339.198 432.959" stroke="#263238" stroke-linecap="round" stroke-linejoin="round"/>
<path d="M223.328 394.834C223.328 394.834 209.998 421.923 208.031 425.863C206.064 429.804 203.092 436.696 203.092 436.696H226.767C226.767 436.696 240.083 427.826 241.569 427.332C243.055 426.838 251.433 427.332 257.348 424.875C263.263 422.417 269.193 416.005 275.108 414.536C281.023 413.068 288.919 410.596 291.396 410.596C293.873 410.596 302.25 413.053 307.67 413.053C313.09 413.053 320.01 407.644 315.64 405.187C311.269 402.73 307.743 404.198 301.828 401.246C295.913 398.295 293.931 397.306 288.016 398.338C282.101 399.371 277.162 395.881 262.855 392.929C248.548 389.978 232.201 388.931 223.328 394.834Z" fill="white" stroke="#263238" stroke-linecap="round" stroke-linejoin="round"/>
<path d="M264.647 379.712C264.647 379.712 272.412 373.111 278.794 376.295C285.175 379.479 282.218 399.981 283.82 408.182C285.423 416.383 287.244 420.702 283.135 421.167C279.027 421.632 277.424 418.433 274.234 411.148C271.043 403.864 264.647 379.712 264.647 379.712Z" fill="white" stroke="#263238" stroke-linecap="round" stroke-linejoin="round"/>
<path d="M245.707 383.812C245.707 383.812 255.978 374.696 260.538 374.696C265.099 374.696 268.755 390.865 272.194 397.96C275.632 405.056 280.673 413.46 278.575 415.7C276.477 417.939 272.179 418.884 268.522 415.016C264.865 411.148 256.867 394.063 254.609 391.33C251.855 388.582 248.878 386.068 245.707 383.812V383.812Z" fill="white" stroke="#263238" stroke-linecap="round" stroke-linejoin="round"/>
<path d="M235.202 386.997C235.202 386.997 235.887 383.812 245.707 383.812C255.527 383.812 263.962 397.48 269.892 400.665C275.822 403.849 274 405.216 269.673 407.266C265.346 409.316 262.593 407.048 253.924 402.264C245.255 397.48 235.202 386.997 235.202 386.997Z" fill="white" stroke="#263238" stroke-linecap="round" stroke-linejoin="round"/>
<path d="M224.305 409.607L231.225 398.28C234.441 398.913 237.474 400.26 240.098 402.221C243.551 405.129 249.961 411.09 257.858 411.09C265.754 411.09 268.216 408.633 265.259 406.161C262.301 403.689 253.414 399.269 247.004 394.834C240.593 390.399 235.654 383.027 230.73 384.496C225.805 385.964 222.396 395.328 216.918 407.644" fill="white"/>
<path d="M224.305 409.607L231.225 398.28C234.441 398.913 237.474 400.26 240.098 402.221C243.551 405.129 249.961 411.09 257.858 411.09C265.754 411.09 268.216 408.633 265.259 406.161C262.301 403.689 253.414 399.269 247.004 394.834C240.593 390.399 235.654 383.027 230.73 384.496C225.805 385.964 222.396 395.328 216.918 407.644" stroke="#263238" stroke-linecap="round" stroke-linejoin="round"/>
<path d="M334.711 192.678C334.711 192.678 332.802 220.814 329.757 230.702C326.712 240.589 322.473 271.022 313.367 284.327C304.261 297.631 292.416 309.045 279.071 309.816C265.725 310.587 247.834 286.988 237.534 271.778C227.233 256.569 226.111 241.36 222.673 226.528C219.235 211.697 218.491 194.539 223.824 181.264C229.156 167.989 255.876 151.602 278.313 153.506C300.75 155.411 328.985 167.203 334.711 175.942C336.342 178.43 337.21 181.338 337.21 184.31C337.21 187.283 336.342 190.191 334.711 192.678V192.678Z" fill="white"/>
<path d="M223.853 181.264C218.521 194.583 219.278 211.697 222.702 226.528C226.126 241.36 227.277 256.569 237.563 271.778C247.849 286.988 265.769 310.572 279.1 309.816C284.585 309.357 289.85 307.45 294.354 304.291L287.579 304.945C273.593 306.268 266.934 296.977 258.28 279.034C249.626 261.091 254.958 250.477 251.622 247.147C248.286 243.817 248.3 219.913 248.3 219.913C248.3 219.913 250.966 209.283 252.292 205.372C253.618 201.461 267.605 196.066 267.605 196.066C267.605 196.066 267.605 206.026 277.191 205.299C286.778 204.572 293.567 194.074 293.567 194.074L292.227 155.789C287.654 154.738 283.015 154 278.342 153.579C255.905 151.602 229.156 167.96 223.853 181.264Z" fill="#CCCCCC"/>
<path opacity="0.5" d="M223.853 181.264C218.521 194.583 219.278 211.697 222.702 226.528C226.126 241.36 227.277 256.569 237.563 271.778C247.849 286.988 265.769 310.572 279.1 309.816C284.585 309.357 289.85 307.45 294.354 304.291L287.579 304.945C273.593 306.268 266.934 296.977 258.28 279.034C249.626 261.091 254.958 250.477 251.622 247.147C248.286 243.817 248.3 219.913 248.3 219.913C248.3 219.913 250.966 209.283 252.292 205.372C253.618 201.461 267.605 196.066 267.605 196.066C267.605 196.066 267.605 206.026 277.191 205.299C286.778 204.572 293.567 194.074 293.567 194.074L292.227 155.789C287.654 154.738 283.015 154 278.342 153.579C255.905 151.602 229.156 167.96 223.853 181.264Z" fill="white"/>
<path d="M334.711 192.678C334.711 192.678 332.802 220.814 329.757 230.702C326.712 240.589 322.473 271.022 313.367 284.327C304.261 297.631 292.416 309.045 279.071 309.816C265.725 310.587 247.834 286.988 237.534 271.778C227.233 256.569 226.111 241.36 222.673 226.528C219.235 211.697 218.491 194.539 223.824 181.264C229.156 167.989 255.876 151.602 278.313 153.506C300.75 155.411 328.985 167.203 334.711 175.942C336.342 178.43 337.21 181.338 337.21 184.31C337.21 187.283 336.342 190.191 334.711 192.678V192.678Z" stroke="#263238" stroke-linecap="round" stroke-linejoin="round"/>
<path d="M296.219 230.323C296.219 230.323 296.597 249.72 306.505 254.664C306.832 254.783 307.128 254.974 307.372 255.223C307.615 255.472 307.799 255.773 307.909 256.103C308.02 256.433 308.055 256.783 308.011 257.128C307.967 257.473 307.845 257.804 307.656 258.096C306.505 260.757 297.748 262.269 291.629 257.703" stroke="#263238" stroke-linecap="round" stroke-linejoin="round"/>
<path d="M304.64 213.849C304.189 213.849 303.75 213.71 303.382 213.451C303.014 213.191 302.735 212.825 302.583 212.402C302.432 211.978 302.415 211.518 302.535 211.085C302.656 210.652 302.907 210.266 303.256 209.981C303.605 209.691 311.997 202.944 325.343 207.611C325.889 207.804 326.337 208.206 326.587 208.728C326.837 209.25 326.869 209.85 326.676 210.396C326.483 210.941 326.08 211.388 325.557 211.638C325.034 211.887 324.433 211.919 323.886 211.726C312.857 207.858 306.097 213.297 306.038 213.355C305.644 213.677 305.149 213.852 304.64 213.849V213.849Z" fill="#263238"/>
<path d="M281.679 211.188C281.296 211.191 280.919 211.094 280.586 210.905C280.254 210.716 279.977 210.442 279.785 210.112C279.551 209.72 274.306 201.112 263.991 202.537C263.418 202.615 262.836 202.464 262.374 202.115C261.913 201.766 261.609 201.248 261.529 200.676C261.454 200.102 261.607 199.522 261.956 199.06C262.305 198.597 262.821 198.29 263.394 198.204C276.681 196.372 283.281 207.437 283.558 207.917C283.849 208.416 283.93 209.011 283.783 209.57C283.635 210.128 283.271 210.606 282.771 210.897C282.439 211.09 282.062 211.19 281.679 211.188V211.188Z" fill="#263238"/>
<path d="M288.176 278.598H294.339" stroke="#263238" stroke-linecap="round" stroke-linejoin="round"/>
<path d="M232.201 137.192C232.201 137.192 207.433 145.189 205.525 155.077C203.616 164.964 216.204 199.57 215.825 203.744C215.446 207.917 211.629 211.363 215.825 217.441C220.021 223.519 227.626 232.65 230.686 227.706C233.746 222.762 229.535 215.536 234.489 212.497C239.442 209.458 246.304 204.514 242.487 198.044C238.67 191.573 240.593 182.049 248.592 180.93C256.59 179.81 263.452 174.474 259.256 180.552C255.06 186.629 242.88 201.475 249.349 202.609C255.818 203.744 281.402 186.615 281.402 186.615C281.402 186.615 272.66 204.063 277.206 205.241C281.751 206.419 317.606 182.805 317.606 182.805C317.606 182.805 334.754 205.241 338.178 203.714C341.602 202.188 339.329 189.654 339.329 189.654C339.329 189.654 341.995 206.39 347.328 207.102C352.66 207.815 359.901 198.727 357.614 193.027C355.326 187.327 351.48 179.359 351.48 179.359C351.48 179.359 359.1 177.454 362.145 174.023C365.19 170.591 364.811 170.228 358.327 169.079C351.844 167.93 346.905 160.718 340.844 154.248C334.783 147.777 324.818 139.039 324.818 139.039C324.818 139.039 336.24 143.982 330.15 138.282C324.061 132.583 291.658 119.642 274.132 119.642C256.605 119.642 250.078 128.788 250.078 128.788C250.078 128.788 253.123 117.373 249.684 118.9C246.246 120.427 242.4 129.544 242.4 129.544C242.4 129.544 234.401 127.261 230.22 129.936C226.038 132.612 224.873 135.258 228.311 135.258C230.242 135.232 232.165 135.487 234.022 136.014L232.201 137.192Z" fill="#263238"/>
<g opacity="0.2">
<path opacity="0.2" d="M230.686 227.663C233.731 222.719 229.535 215.492 234.489 212.453C239.442 209.414 246.304 204.471 242.487 198C238.67 191.53 240.593 182.006 248.592 180.886C254.609 180.028 259.985 176.8 260.495 177.862C263.073 174.314 264.181 171.609 260.495 172.7C253.414 174.823 231.473 178.356 233.585 185.423C235.698 192.489 237.126 196.008 231.473 198.131C225.82 200.254 225.805 205.198 225.805 210.854C225.805 215.681 223.518 223.693 222.891 225.918C225.965 228.797 229.01 230.382 230.686 227.663Z" fill="white"/>
<path opacity="0.2" d="M339.286 189.639L339.781 196.721C339.781 196.721 339.883 197.142 340.014 197.84C340.004 195.224 339.78 192.612 339.344 190.032C339.795 192.547 342.432 206.434 347.284 207.131C352.616 207.888 359.857 198.756 357.57 193.056C357.075 191.835 356.506 190.497 355.938 189.159C354.175 191.908 351.757 194.598 348.989 194.598C343.321 194.598 339.286 189.639 339.286 189.639Z" fill="white"/>
<path opacity="0.2" d="M331.753 199.44C327.062 188.912 321.919 175.259 319.253 171.289C315.013 164.935 300.138 188.243 287.404 196.008C282.203 199.178 278.459 200.559 276.084 200.588C275.618 203.017 275.778 204.95 277.162 205.227C281.737 206.375 317.563 182.791 317.563 182.791C321.997 188.585 326.733 194.142 331.753 199.44V199.44Z" fill="white"/>
<path opacity="0.2" d="M247.849 198.451C247.149 200.646 247.412 202.217 249.306 202.566C254.201 203.424 269.936 193.842 277.366 189.159C281.576 183.998 286.792 180.813 287.36 176.233C288.06 170.577 261.136 193.187 251.972 197.433C250.717 198.143 249.29 198.495 247.849 198.451V198.451Z" fill="white"/>
</g>
<path d="M232.201 137.192C232.201 137.192 207.433 145.189 205.525 155.077C203.616 164.964 216.204 199.57 215.825 203.744C215.446 207.917 211.629 211.363 215.825 217.441C220.021 223.519 227.626 232.65 230.686 227.706C233.746 222.762 229.535 215.536 234.489 212.497C239.442 209.458 246.304 204.514 242.487 198.044C238.67 191.573 240.593 182.049 248.592 180.93C256.59 179.81 263.452 174.474 259.256 180.552C255.06 186.629 242.88 201.475 249.349 202.609C255.818 203.744 281.402 186.615 281.402 186.615C281.402 186.615 272.66 204.063 277.206 205.241C281.751 206.419 317.606 182.805 317.606 182.805C317.606 182.805 334.754 205.241 338.178 203.714C341.602 202.188 339.329 189.654 339.329 189.654C339.329 189.654 341.995 206.39 347.328 207.102C352.66 207.815 359.901 198.727 357.614 193.027C355.326 187.327 351.48 179.359 351.48 179.359C351.48 179.359 359.1 177.454 362.145 174.023C365.19 170.591 364.811 170.228 358.327 169.079C351.844 167.93 346.905 160.718 340.844 154.248C334.783 147.777 324.818 139.039 324.818 139.039C324.818 139.039 336.24 143.982 330.15 138.282C324.061 132.583 291.658 119.642 274.132 119.642C256.605 119.642 250.078 128.788 250.078 128.788C250.078 128.788 253.123 117.373 249.684 118.9C246.246 120.427 242.4 129.544 242.4 129.544C242.4 129.544 234.401 127.261 230.22 129.936C226.038 132.612 224.873 135.258 228.311 135.258C230.242 135.232 232.165 135.487 234.022 136.014L232.201 137.192Z" stroke="#263238" stroke-linecap="round" stroke-linejoin="round"/>
<path d="M288.526 215.303C288.526 215.303 282.961 209.327 267.983 209.749C253.006 210.17 242.298 212.744 239.311 214.46C236.324 216.176 238.029 218.299 238.874 221.294C239.719 224.289 241.875 238.364 245.299 243.919C248.723 249.473 257.712 254.17 263.7 254.17C269.688 254.17 273.112 252.89 279.537 248.194C285.962 243.497 290.231 226.383 290.668 225.133C291.105 223.882 290.668 221.294 294.937 222.573C299.205 223.853 299.642 242.639 300.939 246.492C302.236 250.346 310.773 255.449 317.621 255.449C324.469 255.449 330.894 252.032 336.459 242.218C339.783 236.386 341.132 229.639 340.305 222.981C340.305 222.981 346.293 218.284 341.587 216.568C336.882 214.852 320.695 210.374 310.351 213.587C297.938 217.441 291.513 216.583 288.526 215.303Z" fill="#263238"/>
<path d="M241.453 214.882L212.766 218.72V222.137L241.016 220.436C241.016 220.436 238.422 216.161 241.453 214.882Z" fill="#263238"/>
<path d="M317.606 251.291C309.214 251.291 304.931 246.841 303.999 239.12C302.877 229.873 301.886 223.431 298.972 220.334C303.258 219.826 307.484 218.901 311.589 217.571C313.993 216.906 316.481 216.592 318.976 216.641C325.336 216.817 331.643 217.849 337.727 219.709L335.76 221.279L336.197 223.737C336.825 229.432 335.643 235.18 332.817 240.167C327.178 250.142 321.467 251.291 317.606 251.291ZM263.7 250.011C259.329 250.011 251.593 246.187 248.854 241.738C246.654 238.19 244.818 229.204 243.827 224.391C243.434 222.443 243.143 221.032 242.895 220.145C242.647 219.258 242.443 218.764 242.21 218.124L242.079 217.761C245.445 216.306 254.973 214.3 268.1 213.922H269.557C281.052 213.922 285.481 218.109 285.583 218.153L286.18 218.807L286.996 219.156C287.554 219.383 288.123 219.582 288.701 219.753C287.706 220.831 287.061 222.184 286.851 223.635V223.911C286.851 223.984 286.719 224.333 286.574 224.856C282.32 239.847 278.634 243.832 277.235 244.849C271.014 249.255 268.42 250.011 263.7 250.011V250.011Z" fill="#CCCCCC"/>
<path d="M253.618 220.872H251.418C251.276 220.869 251.141 220.811 251.041 220.711C250.941 220.61 250.883 220.476 250.879 220.334C250.879 220.192 250.936 220.055 251.037 219.954C251.138 219.853 251.275 219.796 251.418 219.796H253.618C253.689 219.796 253.759 219.81 253.824 219.837C253.89 219.864 253.949 219.904 253.999 219.954C254.049 220.004 254.089 220.063 254.116 220.128C254.143 220.194 254.157 220.264 254.157 220.334C254.153 220.476 254.095 220.61 253.995 220.711C253.895 220.811 253.76 220.869 253.618 220.872V220.872ZM254.157 222.835C254.157 222.765 254.143 222.695 254.116 222.629C254.089 222.564 254.049 222.505 253.999 222.455C253.949 222.405 253.89 222.365 253.824 222.338C253.759 222.311 253.689 222.297 253.618 222.297H251.418C251.275 222.297 251.138 222.354 251.037 222.455C250.936 222.556 250.879 222.692 250.879 222.835C250.883 222.977 250.941 223.111 251.041 223.212C251.141 223.312 251.276 223.369 251.418 223.373H253.618C253.76 223.369 253.895 223.312 253.995 223.212C254.095 223.111 254.153 222.977 254.157 222.835V222.835ZM254.157 225.336C254.153 225.195 254.095 225.06 253.995 224.96C253.895 224.86 253.76 224.802 253.618 224.798H251.418C251.276 224.802 251.141 224.86 251.041 224.96C250.941 225.06 250.883 225.195 250.879 225.336C250.879 225.479 250.936 225.616 251.037 225.717C251.138 225.817 251.275 225.874 251.418 225.874H253.618C253.689 225.874 253.759 225.86 253.824 225.833C253.89 225.806 253.949 225.767 253.999 225.717C254.049 225.667 254.089 225.607 254.116 225.542C254.143 225.477 254.157 225.407 254.157 225.336V225.336ZM254.157 227.837C254.153 227.696 254.095 227.561 253.995 227.461C253.895 227.361 253.76 227.303 253.618 227.299H251.418C251.276 227.303 251.141 227.361 251.041 227.461C250.941 227.561 250.883 227.696 250.879 227.837C250.879 227.98 250.936 228.117 251.037 228.217C251.138 228.318 251.275 228.375 251.418 228.375H253.618C253.689 228.375 253.759 228.361 253.824 228.334C253.89 228.307 253.949 228.267 253.999 228.217C254.049 228.168 254.089 228.108 254.116 228.043C254.143 227.978 254.157 227.908 254.157 227.837V227.837ZM254.157 230.338C254.153 230.197 254.095 230.062 253.995 229.962C253.895 229.862 253.76 229.804 253.618 229.8H251.418C251.276 229.804 251.141 229.862 251.041 229.962C250.941 230.062 250.883 230.197 250.879 230.338C250.879 230.481 250.936 230.618 251.037 230.718C251.138 230.819 251.275 230.876 251.418 230.876H253.618C253.689 230.876 253.759 230.862 253.824 230.835C253.89 230.808 253.949 230.768 253.999 230.718C254.049 230.668 254.089 230.609 254.116 230.544C254.143 230.479 254.157 230.409 254.157 230.338V230.338ZM254.157 232.839C254.153 232.697 254.095 232.563 253.995 232.463C253.895 232.363 253.76 232.305 253.618 232.301H251.418C251.276 232.305 251.141 232.363 251.041 232.463C250.941 232.563 250.883 232.697 250.879 232.839C250.879 232.982 250.936 233.119 251.037 233.219C251.138 233.32 251.275 233.377 251.418 233.377H253.618C253.689 233.377 253.759 233.363 253.824 233.336C253.89 233.309 253.949 233.269 253.999 233.219C254.049 233.169 254.089 233.11 254.116 233.045C254.143 232.98 254.157 232.91 254.157 232.839V232.839ZM254.157 235.34C254.153 235.198 254.095 235.064 253.995 234.964C253.895 234.864 253.76 234.806 253.618 234.802H251.418C251.288 234.823 251.171 234.89 251.086 234.989C251.001 235.089 250.954 235.216 250.954 235.347C250.954 235.478 251.001 235.605 251.086 235.705C251.171 235.805 251.288 235.871 251.418 235.892H253.618C253.762 235.889 253.899 235.829 254 235.726C254.101 235.622 254.157 235.484 254.157 235.34V235.34ZM254.157 237.841C254.153 237.699 254.095 237.565 253.995 237.465C253.895 237.364 253.76 237.307 253.618 237.303H251.418C251.288 237.324 251.171 237.391 251.086 237.49C251.001 237.59 250.954 237.717 250.954 237.848C250.954 237.979 251.001 238.106 251.086 238.206C251.171 238.306 251.288 238.372 251.418 238.393H253.618C253.762 238.39 253.899 238.33 254 238.227C254.101 238.123 254.157 237.985 254.157 237.841V237.841ZM262.36 220.392C262.362 220.321 262.349 220.25 262.323 220.184C262.296 220.118 262.257 220.058 262.206 220.007C262.156 219.957 262.096 219.918 262.029 219.891C261.963 219.865 261.892 219.852 261.821 219.854H256.066C255.994 219.852 255.923 219.865 255.857 219.891C255.791 219.918 255.73 219.957 255.68 220.007C255.63 220.058 255.59 220.118 255.564 220.184C255.537 220.25 255.525 220.321 255.527 220.392C255.527 220.535 255.583 220.672 255.684 220.773C255.786 220.874 255.923 220.93 256.066 220.93H261.821C261.897 220.931 261.972 220.915 262.041 220.885C262.111 220.854 262.173 220.809 262.224 220.753C262.275 220.697 262.313 220.63 262.337 220.558C262.36 220.486 262.368 220.41 262.36 220.334V220.392ZM262.36 222.893C262.362 222.822 262.349 222.751 262.323 222.685C262.296 222.619 262.257 222.559 262.206 222.508C262.156 222.458 262.096 222.419 262.029 222.392C261.963 222.366 261.892 222.353 261.821 222.355H256.066C255.994 222.353 255.923 222.366 255.857 222.392C255.791 222.419 255.73 222.458 255.68 222.508C255.63 222.559 255.59 222.619 255.564 222.685C255.537 222.751 255.525 222.822 255.527 222.893C255.527 223.036 255.583 223.173 255.684 223.274C255.786 223.375 255.923 223.431 256.066 223.431H261.821C261.897 223.432 261.972 223.416 262.041 223.386C262.111 223.355 262.173 223.31 262.224 223.254C262.275 223.198 262.313 223.131 262.337 223.059C262.36 222.987 262.368 222.911 262.36 222.835V222.893ZM262.36 225.394C262.36 225.252 262.303 225.115 262.202 225.014C262.101 224.913 261.964 224.856 261.821 224.856H256.066C255.923 224.856 255.786 224.913 255.684 225.014C255.583 225.115 255.527 225.252 255.527 225.394C255.525 225.465 255.537 225.536 255.564 225.603C255.59 225.669 255.63 225.729 255.68 225.779C255.73 225.83 255.791 225.869 255.857 225.895C255.923 225.922 255.994 225.934 256.066 225.932H261.821C261.897 225.935 261.974 225.921 262.044 225.891C262.115 225.862 262.178 225.817 262.23 225.76C262.281 225.703 262.319 225.636 262.342 225.562C262.364 225.489 262.37 225.412 262.36 225.336V225.394ZM262.36 227.895C262.36 227.753 262.303 227.616 262.202 227.515C262.101 227.414 261.964 227.357 261.821 227.357H256.066C255.923 227.357 255.786 227.414 255.684 227.515C255.583 227.616 255.527 227.753 255.527 227.895C255.525 227.966 255.537 228.037 255.564 228.104C255.59 228.17 255.63 228.23 255.68 228.28C255.73 228.331 255.791 228.37 255.857 228.396C255.923 228.423 255.994 228.435 256.066 228.433H261.821C261.897 228.436 261.974 228.422 262.044 228.392C262.115 228.363 262.178 228.318 262.23 228.261C262.281 228.204 262.319 228.137 262.342 228.063C262.364 227.99 262.37 227.913 262.36 227.837V227.895ZM262.36 230.396C262.36 230.254 262.303 230.117 262.202 230.016C262.101 229.915 261.964 229.858 261.821 229.858H256.066C255.923 229.858 255.786 229.915 255.684 230.016C255.583 230.117 255.527 230.254 255.527 230.396C255.525 230.467 255.537 230.538 255.564 230.604C255.59 230.671 255.63 230.731 255.68 230.781C255.73 230.831 255.791 230.871 255.857 230.897C255.923 230.924 255.994 230.936 256.066 230.934H261.821C261.897 230.937 261.974 230.923 262.044 230.893C262.115 230.864 262.178 230.819 262.23 230.762C262.281 230.705 262.319 230.638 262.342 230.564C262.364 230.491 262.37 230.414 262.36 230.338V230.396ZM269.265 232.897C269.262 232.753 269.202 232.616 269.098 232.516C268.995 232.415 268.856 232.359 268.712 232.359H262.957C262.815 232.363 262.68 232.421 262.58 232.521C262.48 232.621 262.422 232.756 262.418 232.897C262.418 233.04 262.475 233.177 262.576 233.278C262.677 233.378 262.814 233.435 262.957 233.435H268.712C268.789 233.438 268.866 233.424 268.937 233.394C269.008 233.364 269.072 233.32 269.125 233.263C269.177 233.207 269.217 233.14 269.241 233.066C269.266 232.993 269.274 232.916 269.265 232.839V232.897ZM269.265 235.398C269.262 235.254 269.202 235.117 269.098 235.017C268.995 234.916 268.856 234.86 268.712 234.86H262.957C262.827 234.881 262.71 234.948 262.625 235.048C262.54 235.148 262.493 235.274 262.493 235.405C262.493 235.536 262.54 235.663 262.625 235.763C262.71 235.863 262.827 235.929 262.957 235.951H268.712C268.79 235.951 268.867 235.935 268.938 235.904C269.009 235.872 269.073 235.826 269.125 235.769C269.178 235.711 269.217 235.643 269.241 235.569C269.265 235.495 269.274 235.417 269.265 235.34V235.398ZM269.265 237.899C269.262 237.755 269.202 237.618 269.098 237.518C268.995 237.417 268.856 237.361 268.712 237.361H262.957C262.827 237.382 262.71 237.449 262.625 237.549C262.54 237.648 262.493 237.775 262.493 237.906C262.493 238.037 262.54 238.164 262.625 238.264C262.71 238.364 262.827 238.43 262.957 238.452H268.712C268.79 238.452 268.867 238.436 268.938 238.405C269.009 238.373 269.073 238.327 269.125 238.27C269.178 238.212 269.217 238.144 269.241 238.07C269.265 237.996 269.274 237.918 269.265 237.841V237.899ZM264.895 220.451C264.895 220.285 264.829 220.126 264.711 220.008C264.594 219.891 264.434 219.825 264.268 219.825C264.102 219.825 263.943 219.891 263.825 220.008C263.708 220.126 263.642 220.285 263.642 220.451C263.642 220.616 263.708 220.775 263.825 220.893C263.943 221.01 264.102 221.076 264.268 221.076C264.361 221.077 264.454 221.058 264.538 221.02C264.623 220.981 264.698 220.925 264.758 220.854C264.818 220.783 264.861 220.699 264.885 220.609C264.909 220.519 264.912 220.425 264.895 220.334V220.451ZM266.774 220.451C266.774 220.285 266.708 220.126 266.591 220.008C266.473 219.891 266.314 219.825 266.148 219.825C265.981 219.825 265.822 219.891 265.705 220.008C265.587 220.126 265.521 220.285 265.521 220.451C265.521 220.616 265.587 220.775 265.705 220.893C265.822 221.01 265.981 221.076 266.148 221.076C266.241 221.077 266.333 221.058 266.418 221.02C266.502 220.981 266.578 220.925 266.638 220.854C266.698 220.783 266.741 220.699 266.765 220.609C266.788 220.519 266.791 220.425 266.774 220.334V220.451ZM268.654 220.451C268.654 220.285 268.588 220.126 268.47 220.008C268.353 219.891 268.193 219.825 268.027 219.825C267.861 219.825 267.702 219.891 267.584 220.008C267.467 220.126 267.401 220.285 267.401 220.451C267.401 220.616 267.467 220.775 267.584 220.893C267.702 221.01 267.861 221.076 268.027 221.076C268.12 221.077 268.212 221.058 268.297 221.02C268.382 220.981 268.457 220.925 268.517 220.854C268.577 220.783 268.62 220.699 268.644 220.609C268.668 220.519 268.671 220.425 268.654 220.334V220.451ZM270.548 220.451C270.55 220.323 270.515 220.198 270.447 220.091C270.378 219.984 270.279 219.9 270.162 219.849C270.045 219.799 269.916 219.784 269.791 219.807C269.665 219.83 269.55 219.89 269.459 219.978C269.368 220.067 269.305 220.181 269.279 220.306C269.253 220.43 269.265 220.56 269.313 220.677C269.361 220.795 269.443 220.896 269.549 220.967C269.655 221.038 269.779 221.076 269.907 221.076C270 221.077 270.093 221.058 270.178 221.019C270.263 220.981 270.339 220.925 270.4 220.854C270.461 220.783 270.506 220.7 270.531 220.61C270.557 220.521 270.562 220.426 270.548 220.334V220.451ZM272.427 220.451C272.427 220.285 272.361 220.126 272.244 220.008C272.126 219.891 271.967 219.825 271.801 219.825C271.634 219.825 271.475 219.891 271.358 220.008C271.24 220.126 271.174 220.285 271.174 220.451C271.174 220.616 271.24 220.775 271.358 220.893C271.475 221.01 271.634 221.076 271.801 221.076C271.894 221.077 271.986 221.058 272.071 221.02C272.155 220.981 272.23 220.925 272.29 220.854C272.35 220.783 272.394 220.699 272.417 220.609C272.441 220.519 272.444 220.425 272.427 220.334V220.451ZM274.306 220.451C274.306 220.285 274.24 220.126 274.123 220.008C274.005 219.891 273.846 219.825 273.68 219.825C273.514 219.825 273.354 219.891 273.237 220.008C273.12 220.126 273.053 220.285 273.053 220.451C273.053 220.616 273.12 220.775 273.237 220.893C273.354 221.01 273.514 221.076 273.68 221.076C273.773 221.077 273.865 221.058 273.95 221.02C274.035 220.981 274.11 220.925 274.17 220.854C274.23 220.783 274.273 220.699 274.297 220.609C274.321 220.519 274.324 220.425 274.306 220.334V220.451ZM264.895 225.452C264.895 225.287 264.829 225.128 264.711 225.01C264.594 224.893 264.434 224.827 264.268 224.827C264.102 224.827 263.943 224.893 263.825 225.01C263.708 225.128 263.642 225.287 263.642 225.452C263.642 225.618 263.708 225.777 263.825 225.895C263.943 226.012 264.102 226.078 264.268 226.078C264.361 226.079 264.454 226.06 264.538 226.022C264.623 225.983 264.698 225.927 264.758 225.856C264.818 225.785 264.861 225.701 264.885 225.611C264.909 225.521 264.912 225.427 264.895 225.336V225.452ZM266.774 225.452C266.774 225.287 266.708 225.128 266.591 225.01C266.473 224.893 266.314 224.827 266.148 224.827C265.981 224.827 265.822 224.893 265.705 225.01C265.587 225.128 265.521 225.287 265.521 225.452C265.521 225.618 265.587 225.777 265.705 225.895C265.822 226.012 265.981 226.078 266.148 226.078C266.241 226.079 266.333 226.06 266.418 226.022C266.502 225.983 266.578 225.927 266.638 225.856C266.698 225.785 266.741 225.701 266.765 225.611C266.788 225.521 266.791 225.427 266.774 225.336V225.452ZM268.654 225.452C268.654 225.287 268.588 225.128 268.47 225.01C268.353 224.893 268.193 224.827 268.027 224.827C267.861 224.827 267.702 224.893 267.584 225.01C267.467 225.128 267.401 225.287 267.401 225.452C267.401 225.618 267.467 225.777 267.584 225.895C267.702 226.012 267.861 226.078 268.027 226.078C268.12 226.079 268.212 226.06 268.297 226.022C268.382 225.983 268.457 225.927 268.517 225.856C268.577 225.785 268.62 225.701 268.644 225.611C268.668 225.521 268.671 225.427 268.654 225.336V225.452ZM270.548 225.452C270.55 225.325 270.515 225.2 270.447 225.093C270.378 224.986 270.279 224.902 270.162 224.851C270.045 224.8 269.916 224.786 269.791 224.809C269.665 224.832 269.55 224.891 269.459 224.98C269.368 225.069 269.305 225.183 269.279 225.308C269.253 225.432 269.265 225.562 269.313 225.679C269.361 225.797 269.443 225.898 269.549 225.969C269.655 226.04 269.779 226.078 269.907 226.078C270 226.079 270.093 226.06 270.178 226.021C270.263 225.983 270.339 225.927 270.4 225.856C270.461 225.785 270.506 225.702 270.531 225.612C270.557 225.523 270.562 225.428 270.548 225.336V225.452ZM272.427 225.452C272.427 225.287 272.361 225.128 272.244 225.01C272.126 224.893 271.967 224.827 271.801 224.827C271.634 224.827 271.475 224.893 271.358 225.01C271.24 225.128 271.174 225.287 271.174 225.452C271.174 225.618 271.24 225.777 271.358 225.895C271.475 226.012 271.634 226.078 271.801 226.078C271.894 226.079 271.986 226.06 272.071 226.022C272.155 225.983 272.23 225.927 272.29 225.856C272.35 225.785 272.394 225.701 272.417 225.611C272.441 225.521 272.444 225.427 272.427 225.336V225.452ZM274.306 225.452C274.306 225.287 274.24 225.128 274.123 225.01C274.005 224.893 273.846 224.827 273.68 224.827C273.514 224.827 273.354 224.893 273.237 225.01C273.12 225.128 273.053 225.287 273.053 225.452C273.053 225.618 273.12 225.777 273.237 225.895C273.354 226.012 273.514 226.078 273.68 226.078C273.773 226.079 273.865 226.06 273.95 226.022C274.035 225.983 274.11 225.927 274.17 225.856C274.23 225.785 274.273 225.701 274.297 225.611C274.321 225.521 274.324 225.427 274.306 225.336V225.452ZM271.393 232.65C271.393 232.526 271.356 232.405 271.287 232.303C271.218 232.2 271.12 232.12 271.006 232.072C270.891 232.025 270.765 232.013 270.644 232.037C270.522 232.061 270.411 232.12 270.323 232.208C270.236 232.295 270.176 232.407 270.152 232.528C270.127 232.649 270.14 232.775 270.187 232.889C270.235 233.003 270.315 233.101 270.418 233.17C270.521 233.239 270.642 233.275 270.766 233.275C270.853 233.267 270.937 233.24 271.013 233.197C271.089 233.155 271.155 233.096 271.207 233.027C271.259 232.957 271.296 232.877 271.316 232.792C271.335 232.707 271.336 232.619 271.32 232.534L271.393 232.65ZM273.272 232.65C273.272 232.484 273.206 232.325 273.089 232.208C272.971 232.091 272.812 232.025 272.646 232.025C272.479 232.025 272.32 232.091 272.203 232.208C272.085 232.325 272.019 232.484 272.019 232.65C272.019 232.816 272.085 232.975 272.203 233.092C272.32 233.209 272.479 233.275 272.646 233.275C272.732 233.267 272.816 233.24 272.892 233.197C272.968 233.155 273.034 233.096 273.087 233.027C273.139 232.957 273.176 232.877 273.195 232.792C273.214 232.707 273.216 232.619 273.199 232.534L273.272 232.65ZM275.151 232.65C275.151 232.484 275.085 232.325 274.968 232.208C274.85 232.091 274.691 232.025 274.525 232.025C274.359 232.025 274.199 232.091 274.082 232.208C273.965 232.325 273.899 232.484 273.899 232.65C273.899 232.816 273.965 232.975 274.082 233.092C274.199 233.209 274.359 233.275 274.525 233.275C274.612 233.267 274.696 233.24 274.772 233.197C274.848 233.155 274.914 233.096 274.966 233.027C275.018 232.957 275.055 232.877 275.074 232.792C275.094 232.707 275.095 232.619 275.079 232.534L275.151 232.65ZM277.031 232.65C277.031 232.484 276.965 232.325 276.847 232.208C276.73 232.091 276.571 232.025 276.404 232.025C276.238 232.025 276.079 232.091 275.961 232.208C275.844 232.325 275.778 232.484 275.778 232.65C275.778 232.816 275.844 232.975 275.961 233.092C276.079 233.209 276.238 233.275 276.404 233.275C276.491 233.267 276.575 233.24 276.651 233.197C276.727 233.155 276.793 233.096 276.845 233.027C276.898 232.957 276.935 232.877 276.954 232.792C276.973 232.707 276.975 232.619 276.958 232.534L277.031 232.65ZM278.925 232.65C278.928 232.522 278.892 232.397 278.823 232.289C278.754 232.182 278.654 232.098 278.536 232.047C278.418 231.997 278.288 231.983 278.163 232.007C278.037 232.032 277.921 232.093 277.831 232.183C277.74 232.274 277.679 232.389 277.655 232.514C277.63 232.64 277.644 232.77 277.695 232.887C277.745 233.005 277.829 233.104 277.937 233.173C278.045 233.243 278.17 233.278 278.298 233.275C278.385 233.267 278.469 233.24 278.545 233.197C278.621 233.155 278.687 233.096 278.739 233.027C278.792 232.957 278.829 232.877 278.848 232.792C278.867 232.707 278.869 232.619 278.852 232.534L278.925 232.65ZM280.804 232.65C280.804 232.484 280.738 232.325 280.621 232.208C280.503 232.091 280.344 232.025 280.178 232.025C280.012 232.025 279.852 232.091 279.735 232.208C279.617 232.325 279.551 232.484 279.551 232.65C279.551 232.816 279.617 232.975 279.735 233.092C279.852 233.209 280.012 233.275 280.178 233.275C280.26 233.26 280.337 233.228 280.406 233.182C280.476 233.136 280.535 233.077 280.581 233.008C280.627 232.939 280.659 232.861 280.675 232.78C280.691 232.699 280.69 232.615 280.673 232.534L280.804 232.65ZM271.393 237.812C271.393 237.646 271.327 237.487 271.209 237.37C271.092 237.252 270.932 237.187 270.766 237.187C270.6 237.187 270.441 237.252 270.323 237.37C270.206 237.487 270.14 237.646 270.14 237.812C270.14 237.978 270.206 238.137 270.323 238.254C270.441 238.371 270.6 238.437 270.766 238.437C270.932 238.437 271.092 238.371 271.209 238.254C271.327 238.137 271.393 237.978 271.393 237.812V237.812ZM273.272 237.812C273.272 237.646 273.206 237.487 273.089 237.37C272.971 237.252 272.812 237.187 272.646 237.187C272.479 237.187 272.32 237.252 272.203 237.37C272.085 237.487 272.019 237.646 272.019 237.812C272.023 237.976 272.09 238.133 272.207 238.25C272.323 238.366 272.481 238.433 272.646 238.437C272.732 238.429 272.816 238.402 272.892 238.359C272.968 238.316 273.034 238.258 273.087 238.188C273.139 238.119 273.176 238.039 273.195 237.954C273.214 237.869 273.216 237.781 273.199 237.695L273.272 237.812ZM275.151 237.812C275.151 237.646 275.085 237.487 274.968 237.37C274.85 237.252 274.691 237.187 274.525 237.187C274.359 237.187 274.199 237.252 274.082 237.37C273.965 237.487 273.899 237.646 273.899 237.812C273.902 237.976 273.969 238.133 274.086 238.25C274.203 238.366 274.36 238.433 274.525 238.437C274.612 238.429 274.696 238.402 274.772 238.359C274.848 238.316 274.914 238.258 274.966 238.188C275.018 238.119 275.055 238.039 275.074 237.954C275.094 237.869 275.095 237.781 275.079 237.695L275.151 237.812ZM277.031 237.812C277.031 237.646 276.965 237.487 276.847 237.37C276.73 237.252 276.571 237.187 276.404 237.187C276.238 237.187 276.079 237.252 275.961 237.37C275.844 237.487 275.778 237.646 275.778 237.812C275.782 237.976 275.849 238.133 275.966 238.25C276.082 238.366 276.239 238.433 276.404 238.437C276.491 238.429 276.575 238.402 276.651 238.359C276.727 238.316 276.793 238.258 276.845 238.188C276.898 238.119 276.935 238.039 276.954 237.954C276.973 237.869 276.975 237.781 276.958 237.695L277.031 237.812ZM278.925 237.812C278.902 237.661 278.825 237.523 278.709 237.423C278.593 237.323 278.444 237.268 278.291 237.268C278.138 237.268 277.99 237.323 277.873 237.423C277.757 237.523 277.68 237.661 277.657 237.812C277.68 237.963 277.757 238.101 277.873 238.201C277.99 238.301 278.138 238.355 278.291 238.355C278.444 238.355 278.593 238.301 278.709 238.201C278.825 238.101 278.902 237.963 278.925 237.812ZM280.804 237.812C280.804 237.646 280.738 237.487 280.621 237.37C280.503 237.252 280.344 237.187 280.178 237.187C280.012 237.187 279.852 237.252 279.735 237.37C279.617 237.487 279.551 237.646 279.551 237.812C279.551 237.978 279.617 238.137 279.735 238.254C279.852 238.371 280.012 238.437 280.178 238.437C280.341 238.402 280.484 238.305 280.576 238.167C280.669 238.028 280.704 237.859 280.673 237.695L280.804 237.812Z" fill="#263238"/>
<path d="M307.204 220.872H305.018C304.874 220.872 304.735 220.816 304.632 220.716C304.529 220.615 304.469 220.478 304.465 220.334C304.465 220.262 304.479 220.191 304.507 220.125C304.535 220.059 304.576 219.999 304.628 219.949C304.679 219.898 304.741 219.859 304.808 219.833C304.875 219.807 304.946 219.794 305.018 219.796H307.204C307.275 219.794 307.346 219.807 307.412 219.833C307.479 219.859 307.539 219.899 307.589 219.949C307.64 220 307.68 220.06 307.706 220.126C307.732 220.192 307.745 220.263 307.743 220.334C307.743 220.477 307.686 220.614 307.585 220.715C307.484 220.815 307.347 220.872 307.204 220.872ZM307.743 222.835C307.745 222.764 307.732 222.693 307.706 222.627C307.68 222.561 307.64 222.501 307.589 222.45C307.539 222.4 307.479 222.36 307.412 222.334C307.346 222.308 307.275 222.295 307.204 222.297H305.018C304.946 222.295 304.875 222.308 304.808 222.334C304.741 222.36 304.679 222.399 304.628 222.449C304.576 222.5 304.535 222.56 304.507 222.626C304.479 222.692 304.465 222.763 304.465 222.835C304.469 222.979 304.529 223.116 304.632 223.216C304.735 223.317 304.874 223.373 305.018 223.373H307.204C307.275 223.373 307.345 223.359 307.41 223.332C307.476 223.305 307.535 223.265 307.585 223.216C307.635 223.166 307.675 223.106 307.702 223.041C307.729 222.976 307.743 222.906 307.743 222.835V222.835ZM307.743 225.336C307.743 225.193 307.686 225.057 307.585 224.956C307.484 224.855 307.347 224.798 307.204 224.798H305.018C304.874 224.798 304.735 224.854 304.632 224.955C304.529 225.055 304.469 225.192 304.465 225.336C304.465 225.408 304.479 225.479 304.507 225.545C304.535 225.612 304.576 225.672 304.628 225.722C304.679 225.772 304.741 225.811 304.808 225.837C304.875 225.864 304.946 225.876 305.018 225.874H307.204C307.275 225.876 307.346 225.864 307.412 225.837C307.479 225.811 307.539 225.771 307.589 225.721C307.64 225.671 307.68 225.61 307.706 225.544C307.732 225.478 307.745 225.407 307.743 225.336V225.336ZM307.743 227.837C307.743 227.694 307.686 227.558 307.585 227.457C307.484 227.356 307.347 227.299 307.204 227.299H305.018C304.874 227.299 304.735 227.355 304.632 227.456C304.529 227.556 304.469 227.693 304.465 227.837C304.465 227.909 304.479 227.98 304.507 228.046C304.535 228.113 304.576 228.173 304.628 228.223C304.679 228.273 304.741 228.312 304.808 228.338C304.875 228.364 304.946 228.377 305.018 228.375H307.204C307.275 228.377 307.346 228.365 307.412 228.338C307.479 228.312 307.539 228.272 307.589 228.222C307.64 228.172 307.68 228.111 307.706 228.045C307.732 227.979 307.745 227.908 307.743 227.837V227.837ZM307.743 230.338C307.743 230.195 307.686 230.058 307.585 229.958C307.484 229.857 307.347 229.8 307.204 229.8H305.018C304.874 229.8 304.735 229.856 304.632 229.957C304.529 230.057 304.469 230.194 304.465 230.338C304.465 230.41 304.479 230.481 304.507 230.547C304.535 230.614 304.576 230.673 304.628 230.724C304.679 230.774 304.741 230.813 304.808 230.839C304.875 230.865 304.946 230.878 305.018 230.876H307.204C307.275 230.878 307.346 230.865 307.412 230.839C307.479 230.813 307.539 230.773 307.589 230.723C307.64 230.673 307.68 230.612 307.706 230.546C307.732 230.48 307.745 230.409 307.743 230.338V230.338ZM307.743 232.839C307.743 232.696 307.686 232.559 307.585 232.459C307.484 232.358 307.347 232.301 307.204 232.301H305.018C304.874 232.301 304.735 232.357 304.632 232.458C304.529 232.558 304.469 232.695 304.465 232.839C304.465 232.911 304.479 232.982 304.507 233.048C304.535 233.114 304.576 233.174 304.628 233.225C304.679 233.275 304.741 233.314 304.808 233.34C304.875 233.366 304.946 233.379 305.018 233.377H307.204C307.275 233.379 307.346 233.366 307.412 233.34C307.479 233.314 307.539 233.274 307.589 233.224C307.64 233.173 307.68 233.113 307.706 233.047C307.732 232.981 307.745 232.91 307.743 232.839V232.839ZM307.743 235.34C307.743 235.197 307.686 235.06 307.585 234.959C307.484 234.859 307.347 234.802 307.204 234.802H305.018C304.939 234.789 304.858 234.793 304.781 234.815C304.703 234.836 304.632 234.874 304.571 234.926C304.509 234.978 304.46 235.042 304.426 235.115C304.393 235.188 304.375 235.267 304.375 235.347C304.375 235.427 304.393 235.506 304.426 235.579C304.46 235.652 304.509 235.716 304.571 235.768C304.632 235.82 304.703 235.858 304.781 235.88C304.858 235.901 304.939 235.905 305.018 235.892H307.204C307.276 235.892 307.347 235.878 307.414 235.85C307.48 235.822 307.54 235.781 307.59 235.73C307.641 235.678 307.68 235.617 307.706 235.55C307.732 235.483 307.745 235.412 307.743 235.34V235.34ZM307.743 237.841C307.743 237.698 307.686 237.561 307.585 237.46C307.484 237.36 307.347 237.303 307.204 237.303H305.018C304.939 237.29 304.858 237.294 304.781 237.316C304.703 237.337 304.632 237.375 304.571 237.427C304.509 237.479 304.46 237.543 304.426 237.616C304.393 237.689 304.375 237.768 304.375 237.848C304.375 237.928 304.393 238.007 304.426 238.08C304.46 238.153 304.509 238.217 304.571 238.269C304.632 238.321 304.703 238.359 304.781 238.381C304.858 238.402 304.939 238.406 305.018 238.393H307.204C307.276 238.393 307.347 238.379 307.414 238.351C307.48 238.323 307.54 238.282 307.59 238.231C307.641 238.179 307.68 238.118 307.706 238.051C307.732 237.984 307.745 237.913 307.743 237.841V237.841ZM315.96 220.392C315.96 220.32 315.946 220.249 315.918 220.183C315.89 220.117 315.849 220.057 315.797 220.007C315.745 219.957 315.684 219.917 315.617 219.891C315.55 219.865 315.478 219.852 315.406 219.854H309.579C309.436 219.854 309.299 219.911 309.197 220.012C309.096 220.113 309.04 220.25 309.04 220.392C309.043 220.534 309.101 220.669 309.202 220.769C309.302 220.869 309.437 220.927 309.579 220.93H315.406C315.483 220.931 315.559 220.915 315.629 220.885C315.699 220.854 315.762 220.809 315.814 220.753C315.866 220.697 315.906 220.631 315.931 220.559C315.956 220.487 315.966 220.41 315.96 220.334V220.392ZM315.96 222.893C315.96 222.821 315.946 222.75 315.918 222.684C315.89 222.618 315.849 222.558 315.797 222.508C315.745 222.457 315.684 222.418 315.617 222.392C315.55 222.366 315.478 222.353 315.406 222.355H309.579C309.436 222.355 309.299 222.412 309.197 222.513C309.096 222.614 309.04 222.751 309.04 222.893C309.043 223.035 309.101 223.17 309.202 223.27C309.302 223.37 309.437 223.428 309.579 223.431H315.406C315.483 223.432 315.559 223.416 315.629 223.385C315.699 223.355 315.762 223.31 315.814 223.254C315.866 223.198 315.906 223.132 315.931 223.06C315.956 222.988 315.966 222.911 315.96 222.835V222.893ZM315.96 225.394C315.956 225.25 315.896 225.113 315.793 225.013C315.689 224.912 315.551 224.856 315.406 224.856H309.579C309.437 224.86 309.302 224.918 309.202 225.018C309.101 225.118 309.043 225.253 309.04 225.394C309.04 225.537 309.096 225.674 309.197 225.775C309.299 225.876 309.436 225.932 309.579 225.932H315.406C315.484 225.935 315.56 225.921 315.632 225.891C315.703 225.861 315.767 225.817 315.82 225.76C315.872 225.704 315.912 225.637 315.936 225.563C315.96 225.49 315.968 225.413 315.96 225.336V225.394ZM315.96 227.895C315.956 227.751 315.896 227.614 315.793 227.514C315.689 227.413 315.551 227.357 315.406 227.357H309.579C309.437 227.361 309.302 227.419 309.202 227.519C309.101 227.619 309.043 227.754 309.04 227.895C309.04 228.038 309.096 228.175 309.197 228.276C309.299 228.377 309.436 228.433 309.579 228.433H315.406C315.484 228.436 315.56 228.422 315.632 228.392C315.703 228.362 315.767 228.318 315.82 228.261C315.872 228.205 315.912 228.138 315.936 228.064C315.96 227.991 315.968 227.914 315.96 227.837V227.895ZM315.96 230.396C315.956 230.252 315.896 230.115 315.793 230.015C315.689 229.914 315.551 229.858 315.406 229.858H309.579C309.437 229.862 309.302 229.92 309.202 230.02C309.101 230.12 309.043 230.255 309.04 230.396C309.04 230.539 309.096 230.676 309.197 230.777C309.299 230.877 309.436 230.934 309.579 230.934H315.406C315.484 230.937 315.56 230.923 315.632 230.893C315.703 230.863 315.767 230.819 315.82 230.762C315.872 230.706 315.912 230.638 315.936 230.565C315.96 230.492 315.968 230.415 315.96 230.338V230.396ZM322.851 232.897C322.848 232.756 322.79 232.621 322.689 232.521C322.589 232.421 322.454 232.363 322.312 232.359H316.484C316.343 232.363 316.208 232.421 316.107 232.521C316.007 232.621 315.949 232.756 315.945 232.897C315.945 233.04 316.002 233.177 316.103 233.278C316.204 233.378 316.342 233.435 316.484 233.435H322.312C322.394 233.447 322.477 233.44 322.556 233.414C322.635 233.388 322.706 233.345 322.765 233.288C322.825 233.23 322.87 233.16 322.897 233.082C322.925 233.004 322.934 232.921 322.924 232.839L322.851 232.897ZM322.851 235.398C322.848 235.257 322.79 235.122 322.689 235.022C322.589 234.922 322.454 234.864 322.312 234.86H316.484C316.355 234.881 316.237 234.948 316.152 235.048C316.067 235.147 316.02 235.274 316.02 235.405C316.02 235.536 316.067 235.663 316.152 235.763C316.237 235.863 316.355 235.929 316.484 235.951H322.312C322.395 235.96 322.478 235.95 322.557 235.923C322.635 235.896 322.707 235.851 322.765 235.792C322.824 235.734 322.869 235.662 322.896 235.584C322.924 235.506 322.933 235.422 322.924 235.34L322.851 235.398ZM322.851 237.899C322.848 237.758 322.79 237.623 322.689 237.523C322.589 237.423 322.454 237.365 322.312 237.361H316.484C316.355 237.382 316.237 237.449 316.152 237.549C316.067 237.648 316.02 237.775 316.02 237.906C316.02 238.037 316.067 238.164 316.152 238.264C316.237 238.364 316.355 238.43 316.484 238.452H322.312C322.395 238.461 322.478 238.451 322.557 238.424C322.635 238.397 322.707 238.352 322.765 238.293C322.824 238.234 322.869 238.163 322.896 238.085C322.924 238.007 322.933 237.923 322.924 237.841L322.851 237.899ZM318.48 220.451C318.48 220.285 318.414 220.126 318.297 220.008C318.18 219.891 318.02 219.825 317.854 219.825C317.688 219.825 317.529 219.891 317.411 220.008C317.294 220.126 317.228 220.285 317.228 220.451C317.228 220.616 317.294 220.775 317.411 220.893C317.529 221.01 317.688 221.076 317.854 221.076C317.953 221.089 318.054 221.079 318.148 221.046C318.242 221.013 318.327 220.957 318.395 220.885C318.464 220.812 318.514 220.724 318.541 220.629C318.569 220.533 318.573 220.432 318.553 220.334L318.48 220.451ZM320.374 220.451C320.374 220.285 320.308 220.126 320.191 220.008C320.074 219.891 319.914 219.825 319.748 219.825C319.582 219.825 319.423 219.891 319.305 220.008C319.188 220.126 319.122 220.285 319.122 220.451C319.122 220.616 319.188 220.775 319.305 220.893C319.423 221.01 319.582 221.076 319.748 221.076C319.841 221.077 319.933 221.058 320.018 221.02C320.103 220.981 320.178 220.925 320.238 220.854C320.298 220.783 320.341 220.699 320.365 220.609C320.389 220.519 320.392 220.425 320.374 220.334V220.451ZM322.254 220.451C322.254 220.285 322.188 220.126 322.07 220.008C321.953 219.891 321.794 219.825 321.627 219.825C321.461 219.825 321.302 219.891 321.184 220.008C321.067 220.126 321.001 220.285 321.001 220.451C321.001 220.616 321.067 220.775 321.184 220.893C321.302 221.01 321.461 221.076 321.627 221.076C321.721 221.077 321.813 221.058 321.898 221.02C321.982 220.981 322.057 220.925 322.117 220.854C322.177 220.783 322.221 220.699 322.244 220.609C322.268 220.519 322.271 220.425 322.254 220.334V220.451ZM324.133 220.451C324.133 220.285 324.067 220.126 323.95 220.008C323.832 219.891 323.673 219.825 323.507 219.825C323.341 219.825 323.181 219.891 323.064 220.008C322.946 220.126 322.88 220.285 322.88 220.451C322.88 220.616 322.946 220.775 323.064 220.893C323.181 221.01 323.341 221.076 323.507 221.076C323.6 221.077 323.692 221.058 323.777 221.02C323.862 220.981 323.937 220.925 323.997 220.854C324.057 220.783 324.1 220.699 324.124 220.609C324.147 220.519 324.151 220.425 324.133 220.334V220.451ZM326.013 220.451C326.013 220.285 325.947 220.126 325.829 220.008C325.712 219.891 325.552 219.825 325.386 219.825C325.22 219.825 325.061 219.891 324.943 220.008C324.826 220.126 324.76 220.285 324.76 220.451C324.76 220.616 324.826 220.775 324.943 220.893C325.061 221.01 325.22 221.076 325.386 221.076C325.479 221.077 325.572 221.058 325.656 221.02C325.741 220.981 325.816 220.925 325.876 220.854C325.936 220.783 325.98 220.699 326.003 220.609C326.027 220.519 326.03 220.425 326.013 220.334V220.451ZM327.892 220.451C327.892 220.327 327.856 220.206 327.787 220.103C327.718 220 327.62 219.92 327.506 219.873C327.391 219.826 327.265 219.813 327.144 219.837C327.022 219.861 326.91 219.921 326.823 220.008C326.735 220.096 326.676 220.207 326.651 220.329C326.627 220.45 326.64 220.576 326.687 220.69C326.734 220.804 326.815 220.902 326.918 220.97C327.021 221.039 327.142 221.076 327.266 221.076C327.359 221.077 327.451 221.058 327.536 221.02C327.621 220.981 327.696 220.925 327.756 220.854C327.816 220.783 327.859 220.699 327.883 220.609C327.906 220.519 327.91 220.425 327.892 220.334V220.451ZM318.553 225.336C318.553 225.17 318.487 225.011 318.37 224.894C318.252 224.777 318.093 224.711 317.927 224.711C317.761 224.711 317.601 224.777 317.484 224.894C317.366 225.011 317.3 225.17 317.3 225.336C317.3 225.502 317.366 225.661 317.484 225.778C317.601 225.895 317.761 225.961 317.927 225.961C318.093 225.961 318.252 225.895 318.37 225.778C318.487 225.661 318.553 225.502 318.553 225.336ZM320.447 225.336C320.447 225.17 320.381 225.011 320.264 224.894C320.146 224.777 319.987 224.711 319.821 224.711C319.655 224.711 319.495 224.777 319.378 224.894C319.26 225.011 319.194 225.17 319.194 225.336C319.194 225.502 319.26 225.661 319.378 225.778C319.495 225.895 319.655 225.961 319.821 225.961C319.974 225.943 320.115 225.87 320.217 225.754C320.32 225.639 320.376 225.49 320.374 225.336H320.447ZM322.327 225.336C322.327 225.17 322.261 225.011 322.143 224.894C322.026 224.777 321.866 224.711 321.7 224.711C321.534 224.711 321.375 224.777 321.257 224.894C321.14 225.011 321.074 225.17 321.074 225.336C321.074 225.502 321.14 225.661 321.257 225.778C321.375 225.895 321.534 225.961 321.7 225.961C321.854 225.943 321.995 225.87 322.097 225.754C322.199 225.639 322.255 225.49 322.254 225.336H322.327ZM324.206 225.336C324.206 225.17 324.14 225.011 324.023 224.894C323.905 224.777 323.746 224.711 323.58 224.711C323.414 224.711 323.254 224.777 323.137 224.894C323.019 225.011 322.953 225.17 322.953 225.336C322.953 225.502 323.019 225.661 323.137 225.778C323.254 225.895 323.414 225.961 323.58 225.961C323.733 225.943 323.874 225.87 323.976 225.754C324.079 225.639 324.134 225.49 324.133 225.336H324.206ZM326.086 225.336C326.086 225.17 326.02 225.011 325.902 224.894C325.785 224.777 325.625 224.711 325.459 224.711C325.293 224.711 325.134 224.777 325.016 224.894C324.899 225.011 324.833 225.17 324.833 225.336C324.833 225.502 324.899 225.661 325.016 225.778C325.134 225.895 325.293 225.961 325.459 225.961C325.612 225.943 325.754 225.87 325.856 225.754C325.958 225.639 326.014 225.49 326.013 225.336H326.086ZM327.965 225.336C327.965 225.212 327.928 225.092 327.86 224.989C327.791 224.886 327.693 224.806 327.578 224.758C327.464 224.711 327.338 224.699 327.216 224.723C327.095 224.747 326.983 224.807 326.896 224.894C326.808 224.981 326.748 225.093 326.724 225.214C326.7 225.335 326.712 225.461 326.76 225.575C326.807 225.69 326.888 225.787 326.991 225.856C327.094 225.925 327.215 225.961 327.339 225.961C327.492 225.943 327.633 225.87 327.735 225.754C327.837 225.639 327.893 225.49 327.892 225.336H327.965ZM324.978 232.534C324.978 232.368 324.912 232.209 324.795 232.091C324.677 231.974 324.518 231.908 324.352 231.908C324.186 231.908 324.026 231.974 323.909 232.091C323.791 232.209 323.725 232.368 323.725 232.534C323.725 232.699 323.791 232.858 323.909 232.976C324.026 233.093 324.186 233.159 324.352 233.159C324.505 233.141 324.646 233.067 324.749 232.952C324.851 232.837 324.907 232.688 324.906 232.534H324.978ZM326.872 232.534C326.875 232.406 326.84 232.281 326.772 232.174C326.703 232.067 326.604 231.983 326.487 231.932C326.37 231.882 326.241 231.867 326.115 231.89C325.99 231.913 325.875 231.973 325.783 232.062C325.692 232.15 325.63 232.264 325.604 232.389C325.578 232.513 325.59 232.643 325.638 232.76C325.686 232.878 325.768 232.979 325.874 233.05C325.979 233.121 326.104 233.159 326.231 233.159C326.386 233.141 326.529 233.068 326.633 232.953C326.738 232.838 326.797 232.689 326.8 232.534H326.872ZM328.752 232.534C328.752 232.368 328.686 232.209 328.568 232.091C328.451 231.974 328.292 231.908 328.125 231.908C327.959 231.908 327.8 231.974 327.682 232.091C327.565 232.209 327.499 232.368 327.499 232.534C327.499 232.699 327.565 232.858 327.682 232.976C327.8 233.093 327.959 233.159 328.125 233.159C328.292 233.159 328.451 233.093 328.568 232.976C328.686 232.858 328.752 232.699 328.752 232.534V232.534ZM330.631 232.534C330.631 232.368 330.565 232.209 330.448 232.091C330.33 231.974 330.171 231.908 330.005 231.908C329.839 231.908 329.679 231.974 329.562 232.091C329.444 232.209 329.378 232.368 329.378 232.534C329.378 232.699 329.444 232.858 329.562 232.976C329.679 233.093 329.839 233.159 330.005 233.159C330.158 233.141 330.299 233.067 330.401 232.952C330.504 232.837 330.559 232.688 330.558 232.534H330.631ZM332.511 232.534C332.511 232.368 332.445 232.209 332.327 232.091C332.21 231.974 332.05 231.908 331.884 231.908C331.718 231.908 331.559 231.974 331.441 232.091C331.324 232.209 331.258 232.368 331.258 232.534C331.258 232.699 331.324 232.858 331.441 232.976C331.559 233.093 331.718 233.159 331.884 233.159C332.037 233.141 332.179 233.067 332.281 232.952C332.383 232.837 332.439 232.688 332.438 232.534H332.511ZM334.39 232.534C334.39 232.41 334.353 232.289 334.285 232.186C334.216 232.083 334.118 232.003 334.003 231.956C333.889 231.909 333.763 231.896 333.641 231.92C333.52 231.944 333.408 232.004 333.321 232.091C333.233 232.179 333.173 232.29 333.149 232.412C333.125 232.533 333.137 232.659 333.185 232.773C333.232 232.887 333.313 232.985 333.416 233.053C333.519 233.122 333.64 233.159 333.764 233.159C333.917 233.141 334.058 233.067 334.16 232.952C334.262 232.837 334.318 232.688 334.317 232.534H334.39ZM324.978 237.695C324.978 237.53 324.912 237.371 324.795 237.253C324.677 237.136 324.518 237.07 324.352 237.07C324.186 237.07 324.026 237.136 323.909 237.253C323.791 237.371 323.725 237.53 323.725 237.695C323.729 237.86 323.796 238.017 323.913 238.133C324.03 238.25 324.187 238.317 324.352 238.321C324.505 238.303 324.646 238.229 324.749 238.114C324.851 237.998 324.907 237.849 324.906 237.695H324.978ZM326.872 237.695C326.849 237.544 326.773 237.406 326.656 237.306C326.54 237.207 326.392 237.152 326.239 237.152C326.085 237.152 325.937 237.207 325.821 237.306C325.705 237.406 325.628 237.544 325.605 237.695C325.628 237.847 325.705 237.985 325.821 238.084C325.937 238.184 326.085 238.239 326.239 238.239C326.392 238.239 326.54 238.184 326.656 238.084C326.773 237.985 326.849 237.847 326.872 237.695ZM328.752 237.695C328.752 237.613 328.736 237.532 328.704 237.456C328.673 237.38 328.627 237.311 328.568 237.253C328.51 237.195 328.441 237.149 328.365 237.118C328.289 237.086 328.208 237.07 328.125 237.07C327.959 237.07 327.8 237.136 327.682 237.253C327.565 237.371 327.499 237.53 327.499 237.695C327.499 237.778 327.515 237.859 327.547 237.935C327.578 238.011 327.624 238.079 327.682 238.138C327.741 238.196 327.81 238.242 327.886 238.273C327.962 238.305 328.043 238.321 328.125 238.321C328.29 238.317 328.448 238.25 328.564 238.133C328.681 238.017 328.748 237.86 328.752 237.695V237.695ZM330.631 237.695C330.631 237.53 330.565 237.371 330.448 237.253C330.33 237.136 330.171 237.07 330.005 237.07C329.839 237.07 329.679 237.136 329.562 237.253C329.444 237.371 329.378 237.53 329.378 237.695C329.378 237.778 329.395 237.859 329.426 237.935C329.458 238.011 329.504 238.079 329.562 238.138C329.62 238.196 329.689 238.242 329.765 238.273C329.841 238.305 329.923 238.321 330.005 238.321C330.157 238.3 330.296 238.225 330.398 238.111C330.499 237.996 330.556 237.849 330.558 237.695H330.631ZM332.511 237.695C332.511 237.53 332.445 237.371 332.327 237.253C332.21 237.136 332.05 237.07 331.884 237.07C331.718 237.07 331.559 237.136 331.441 237.253C331.324 237.371 331.258 237.53 331.258 237.695C331.258 237.778 331.274 237.859 331.305 237.935C331.337 238.011 331.383 238.079 331.441 238.138C331.499 238.196 331.568 238.242 331.644 238.273C331.721 238.305 331.802 238.321 331.884 238.321C332.036 238.3 332.176 238.225 332.277 238.111C332.379 237.996 332.436 237.849 332.438 237.695H332.511ZM334.39 237.695C334.39 237.53 334.324 237.371 334.207 237.253C334.089 237.136 333.93 237.07 333.764 237.07C333.598 237.07 333.438 237.136 333.321 237.253C333.203 237.371 333.137 237.53 333.137 237.695C333.137 237.861 333.203 238.02 333.321 238.138C333.438 238.255 333.598 238.321 333.764 238.321C333.93 238.321 334.089 238.255 334.207 238.138C334.324 238.02 334.39 237.861 334.39 237.695Z" fill="#263238"/>
<path d="M232.201 235.645C232.201 235.645 223.066 214.358 215.053 214.358C207.04 214.358 207.433 232.228 212.387 241.738C217.34 251.247 228.02 255.042 231.065 249.342" fill="white"/>
<path d="M232.201 235.645C232.201 235.645 223.066 214.358 215.053 214.358C207.04 214.358 207.433 232.228 212.387 241.738C217.34 251.247 228.02 255.042 231.065 249.342" fill="#CCCCCC"/>
<path opacity="0.5" d="M232.201 235.645C232.201 235.645 223.066 214.358 215.053 214.358C207.04 214.358 207.433 232.228 212.387 241.738C217.34 251.247 228.02 255.042 231.065 249.342" fill="white"/>
<path d="M232.201 235.645C232.201 235.645 223.066 214.358 215.053 214.358C207.04 214.358 207.433 232.228 212.387 241.738C217.34 251.247 228.02 255.042 231.065 249.342" stroke="#263238" stroke-linecap="round" stroke-linejoin="round"/>
<path d="M212.401 227.343C212.401 227.343 211.236 218.08 215.65 219.709C220.065 221.337 225.164 235.922 225.164 235.922C225.164 235.922 221.449 231.981 221.915 235.689C221.974 236.675 222.378 237.608 223.057 238.326C223.737 239.044 224.648 239.5 225.63 239.615" stroke="#263238" stroke-linecap="round" stroke-linejoin="round"/>
<path d="M537.836 301.688H357.22L326.377 425.427H507.007L537.836 301.688Z" fill="#263238" stroke="#263238" stroke-linecap="round" stroke-linejoin="round"/>
<path d="M505.113 425.427H235.756V434.224H505.113V425.427Z" fill="#263238" stroke="#263238" stroke-linecap="round" stroke-linejoin="round"/>
<path d="M507.007 425.427H326.377V434.224H507.007V425.427Z" fill="#CCCCCC" stroke="#263238" stroke-linecap="round" stroke-linejoin="round"/>
<path d="M539.846 301.688H359.216L328.373 425.427H509.003L539.846 301.688Z" fill="#CCCCCC" stroke="#263238" stroke-linecap="round" stroke-linejoin="round"/>
<path d="M433.082 391.373C447.309 391.373 458.841 379.974 458.841 365.913C458.841 351.852 447.309 340.453 433.082 340.453C418.856 340.453 407.324 351.852 407.324 365.913C407.324 379.974 418.856 391.373 433.082 391.373Z" fill="#263238"/>
<path d="M412.146 369.839C411.876 369.718 411.634 369.543 411.434 369.326C411.233 369.108 411.079 368.853 410.981 368.574C410.741 367.977 410.741 367.31 410.981 366.713C411.111 366.384 411.308 366.085 411.559 365.835C411.809 365.585 412.108 365.389 412.438 365.259L423.35 360.897C423.714 360.737 424.093 360.897 424.501 361.376C424.863 361.78 425.083 362.291 425.128 362.831C425.137 363.09 425.072 363.347 424.941 363.571C424.809 363.795 424.616 363.977 424.385 364.096L415.235 367.643L424.414 371.322C424.607 371.452 424.762 371.631 424.862 371.841C424.962 372.05 425.003 372.283 424.982 372.514C424.964 373.042 424.781 373.551 424.458 373.969C424.108 374.434 423.758 374.594 423.394 374.448L412.146 369.839Z" fill="white"/>
<path d="M429.178 375.931C429.028 375.812 428.907 375.659 428.826 375.485C428.745 375.311 428.706 375.12 428.712 374.928C428.777 374.404 428.894 373.888 429.061 373.387L435.122 355.938C435.501 354.63 436.04 353.975 436.739 353.975C437.124 353.969 437.497 354.104 437.788 354.354C437.931 354.496 438.042 354.667 438.114 354.855C438.187 355.042 438.22 355.243 438.211 355.444C438.174 355.943 438.061 356.433 437.876 356.898L431.538 375.364C431.467 375.658 431.296 375.917 431.054 376.097C430.812 376.278 430.514 376.368 430.212 376.353C429.828 376.341 429.461 376.191 429.178 375.931V375.931Z" fill="white"/>
<path d="M441.081 374.041C440.758 373.623 440.574 373.115 440.557 372.587C440.535 372.356 440.577 372.123 440.677 371.913C440.777 371.703 440.932 371.524 441.125 371.395L450.303 367.716L441.154 364.168C440.922 364.05 440.73 363.868 440.598 363.644C440.466 363.42 440.402 363.163 440.411 362.903C440.456 362.363 440.675 361.853 441.037 361.449C441.445 360.969 441.824 360.809 442.188 360.969L453.101 365.331C453.627 365.539 454.075 365.905 454.383 366.378C454.66 366.78 454.808 367.257 454.805 367.745C454.787 368.201 454.657 368.646 454.427 369.039C454.212 369.429 453.874 369.736 453.465 369.912L442.145 374.608C441.78 374.666 441.431 374.506 441.081 374.041Z" fill="white"/>
<path d="M607.025 432.276H22.3159V441H607.025V432.276Z" fill="white" stroke="#263238" stroke-linecap="round" stroke-linejoin="round"/>
</svg>
