<svg width="30" height="30" viewBox="0 0 30 30" fill="none" xmlns="http://www.w3.org/2000/svg">
<path d="M0.323425 15.2201V30H14.9379H29.5522V15.2201V0.440247H14.9379H0.323425V15.2201ZM18.5821 15.2453C18.5448 20.4276 18.495 22.3899 18.3831 22.7296C17.9353 24.0755 16.8283 25.0314 15.3483 25.3585C13.8309 25.6981 10.4478 25.4717 9.67664 24.9937C9.56468 24.9056 9.63932 24.5409 10.0374 23.3711L10.5473 21.849L10.9453 22.0126C12.2389 22.566 14.0921 22.6289 14.6269 22.1384C15.1244 21.6855 15.1617 21.2453 15.2115 14.6163L15.2736 8.23901H16.9403H18.6194L18.5821 15.2453Z" fill="#F3F3F3"/>
</svg>
